<svg version="1.1" id="Capa_1" xmlns="http://www.w3.org/2000/svg" x="0" y="0" viewBox="0 0 29.121 29.121" xml:space="preserve"><g fill="#030104"><path d="M21.706 6.146c1.116 0 2.02-.898 2.02-2.016V2.02c0-1.119-.903-2.02-2.02-2.02s-2.019.9-2.019 2.02v2.111a2.014 2.014 0 0 0 2.019 2.015z"/><path d="M28.882 3.494h-4.066v1.027a3.078 3.078 0 0 1-3.075 3.076 3.076 3.076 0 0 1-3.074-3.076V3.494h-8.205v1.027c0 1.695-1.379 3.076-3.076 3.076s-3.075-1.38-3.075-3.076V3.494L.208 3.443v25.678h26.656l2.049-.006-.031-25.621zm-2.02 23.582H2.26V10.672h24.604v16.404h-.002z"/><path d="M7.354 6.146A2.016 2.016 0 0 0 9.375 4.13V2.02C9.375.9 8.47 0 7.354 0S5.336.9 5.336 2.02v2.111c0 1.117.901 2.015 2.018 2.015zm3.114 6.727h3.231v2.852h-3.231zm5.224 0h3.234v2.852h-3.234zm4.845 0h3.231v2.852h-3.231zm-10.069 4.736h3.231v2.85h-3.231zm5.224 0h3.234v2.85h-3.234zm4.845 0h3.231v2.85h-3.231zm-10.069 4.83h3.231v2.85h-3.231zm-5.132-4.83h3.229v2.85H5.336zm0 4.83h3.229v2.85H5.336zm10.356 0h3.234v2.85h-3.234zm4.845 0h3.231v2.85h-3.231z"/></g></svg>