<svg version="1.1" id="Capa_1" xmlns="http://www.w3.org/2000/svg" x="0" y="0" viewBox="0 0 31.3 31.3" xml:space="preserve"><style>.st0{fill:#ff491d}</style><path class="st0" d="M13.2 12.3c.2 1.8.3 5.1-1.1 7.8l-.3.6c-2.3.7-4.8 2.1-5.2 3.6-.2.6 0 1.2.4 1.6.4.5 1 .7 1.6.7 1.4 0 2.9-1.4 4.6-4.2.6-.1 4-.6 4.7-.6 2 2 3.6 3 4.9 3 .8 0 1.5-.4 1.9-1.1.3-.5.3-1.1 0-1.6-.8-1.5-4-2.1-5.9-2.2-.2-.2-.3-.4-.5-.6-2-2.2-2.8-5.5-3-7.2 0-.4-.1-.7-.1-1-.1-.9-.7-1-1-1-.3 0-.6.1-.7.3-.3.3-.3.7-.2 1-.2.3-.2.6-.1.9zM8.6 24.6c.2-.2.6-.5 1.1-.8-.5.5-.9.7-1.1.8zm13.9-1.7c-.2 0-.5-.1-1-.4.5.1.8.2 1 .4zm-7.6-5c.4.7.8 1.4 1.2 2-.2 0-1.8.2-1.9.2.3-.6.5-1.4.7-2.2z"/><path class="st0" d="M11.1 0L3 8.5v22.7h25.3V0H11.1zm-.7 3.6v3.8H6.8l3.6-3.8zm15.9 25.7H4.9v-20h7.4V2h14v27.3z"/></svg>