<svg version="1.1" id="Capa_1" xmlns="http://www.w3.org/2000/svg" x="0" y="0" viewBox="0 0 384 384" xml:space="preserve"><path d="M339.627 64.213c-4.373-12.587-16.32-21.547-30.293-21.547H256V0H128v42.667H74.667c-13.973 0-25.92 8.96-30.293 21.547L0 192v170.667C0 374.4 9.6 384 21.333 384h21.333C54.507 384 64 374.4 64 362.667v-21.333h256v21.333C320 374.4 329.6 384 341.333 384h21.333c11.84 0 21.333-9.6 21.333-21.333V192L339.627 64.213zm-264.96 213.12c-17.707 0-32-14.293-32-32s14.293-32 32-32 32 14.293 32 32-14.294 32-32 32zm234.666 0c-17.707 0-32-14.293-32-32s14.293-32 32-32 32 14.293 32 32-14.293 32-32 32zM42.667 170.667l32-96h234.667l32 96H42.667z"/></svg>