<svg version="1.1" id="Capa_1" xmlns="http://www.w3.org/2000/svg" x="0" y="0" viewBox="0 0 392.2 392.2" xml:space="preserve"><path d="M368.6 18h-345C10.6 18 0 28.5 0 41.5v309.1c0 13 10.6 23.6 23.6 23.6h345.1c13 0 23.6-10.6 23.6-23.6V41.5c-.1-13-10.7-23.5-23.7-23.5zm-71 39.5c0-4.8 3.9-8.7 8.7-8.7h8.7c4.8 0 8.7 3.9 8.7 8.7v9.9c0 4.8-3.9 8.7-8.7 8.7h-8.7c-4.8 0-8.7-3.9-8.7-8.7v-9.9zm-40.5 0c0-4.8 3.9-8.7 8.7-8.7h8.7c4.8 0 8.7 3.9 8.7 8.7v9.9c0 4.8-3.9 8.7-8.7 8.7h-8.7c-4.8 0-8.7-3.9-8.7-8.7v-9.9zM363.9 346H28.3V102.2h335.6V346zm.2-278.6c0 4.8-3.9 8.7-8.7 8.7h-8.7c-4.8 0-8.7-3.9-8.7-8.7v-9.9c0-4.8 3.9-8.7 8.7-8.7h8.7c4.8 0 8.7 3.9 8.7 8.7v9.9z"/></svg>