<svg version="1.1" id="Слой_1" xmlns="http://www.w3.org/2000/svg" x="0" y="0" viewBox="0 0 259 80" xml:space="preserve"><style>.st0{fill:#ff491d}</style><path class="st0" d="M203.9 50.7h17.8l7-21.4h-17.8z"/><path class="st0" d="M181.4 0C167.9 0 156 8.8 152 21.6L133.8 80h77.6c13.5 0 25.4-8.8 29.4-21.6L259 0h-77.6zM196 29.5l-1.1 3.3h-7.1l1.2-3.6h-17.9l-7 21.5H182l2-6.2h-9l2.3-7.2h16.1L188 53.9c-.8 2.3-2.9 3.9-5.4 3.9h-20.2c-3.8 0-6.6-3.8-5.4-7.4l8-24.5c.8-2.3 2.9-3.9 5.4-3.9h20.2c3.8.1 6.5 3.8 5.4 7.5zm39.8 0l-8 24.5c-.8 2.3-2.9 3.9-5.4 3.9h-20.2c-3.8 0-6.6-3.8-5.4-7.4l8-24.5c.8-2.3 2.9-3.9 5.4-3.9h20.2c3.8 0 6.5 3.7 5.4 7.4z"/><path d="M11.5 28.8H0V22h31.2v6.8H19.7v29.1h-8.3V28.8h.1zM60 50.2H43.4l-3.2 7.7h-8.5l16-35.8h8.2l16 35.8h-8.7L60 50.2zm-2.6-6.3l-5.7-13.7L46 43.9h11.4zm44.3 14l-8.6-12.4-8.5 12.4h-9.5l13.2-18.2-12.6-17.6h9.4l8.2 11.6 8.1-11.6h9L97.9 39.4l13.4 18.5h-9.6zm15.4-35.8h8.3v35.8h-8.3V22.1z" fill="#304f5f"/></svg>